<?xml version="1.0" encoding="UTF-8" standalone="no"?>
<!-- Created with Inkscape (http://www.inkscape.org/) -->

<svg
   xmlns:dc="http://purl.org/dc/elements/1.1/"
   xmlns:cc="http://creativecommons.org/ns#"
   xmlns:rdf="http://www.w3.org/1999/02/22-rdf-syntax-ns#"
   xmlns:svg="http://www.w3.org/2000/svg"
   xmlns="http://www.w3.org/2000/svg"
   xmlns:sodipodi="http://sodipodi.sourceforge.net/DTD/sodipodi-0.dtd"
   xmlns:inkscape="http://www.inkscape.org/namespaces/inkscape"
   version="1.1"
   id="svg2"
   width="245.78282"
   height="311.78217"
   viewBox="0 0 245.78282 311.78217"
   sodipodi:docname="vet-tableauordre-thumbnail.svg"
   inkscape:version="0.92.4 (5da689c313, 2019-01-14)">
  <metadata
     id="metadata8">
    <rdf:RDF>
      <cc:Work
         rdf:about="">
        <dc:format>image/svg+xml</dc:format>
        <dc:type
           rdf:resource="http://purl.org/dc/dcmitype/StillImage" />
        <dc:title></dc:title>
      </cc:Work>
    </rdf:RDF>
  </metadata>
  <defs
     id="defs6" />
  <sodipodi:namedview
     pagecolor="#ffffff"
     bordercolor="#666666"
     borderopacity="1"
     objecttolerance="10"
     gridtolerance="10"
     guidetolerance="10"
     inkscape:pageopacity="0"
     inkscape:pageshadow="2"
     inkscape:window-width="1920"
     inkscape:window-height="1017"
     id="namedview4"
     showgrid="false"
     inkscape:zoom="1.3669171"
     inkscape:cx="203.1099"
     inkscape:cy="113.86503"
     inkscape:window-x="-8"
     inkscape:window-y="-8"
     inkscape:window-maximized="1"
     inkscape:current-layer="layer1"
     fit-margin-top="0"
     fit-margin-left="0"
     fit-margin-right="0"
     fit-margin-bottom="0" />
  <g
     inkscape:groupmode="layer"
     id="layer1"
     inkscape:label="rouge"
     style="display:inline"
     transform="translate(-3.112702,-1.632066)">
    <g
       id="g4540">
      <g
         transform="translate(-21.710349,-19.233155)"
         id="g4520">
        <path
           sodipodi:nodetypes="ccccscccsssccsssc"
           inkscape:connector-curvature="0"
           id="path4524"
           d="m 126,116 0.57237,202.95919 c -12.03571,0.0903 -22.49995,0.0404 -34.57237,0.0404 l 0.533564,-201.446 c 2.293605,-2.12714 9.969106,-0.30454 10.297336,-3.46894 0.28377,-2.73576 -0.34311,-3.78337 -4.401651,-7.35584 C 93.949057,102.78518 88.096975,92.479879 88.311433,90.089408 l -1.214869,-11.858721 0.313254,-6.365343 c 0.645315,-13.112835 6.002822,-23.0138 14.889812,-27.517176 4.70147,-2.382417 8.85195,-1.464608 12.65481,-0.214536 8.69518,2.858269 11.04392,11.858087 12.48782,23.785452 l 0.62439,21.207654 c 0,4.328035 -6.17403,14.990162 -10.72036,18.194712 -3.36885,2.37459 -4.34629,3.69493 -4.34629,5.87105 0,2.78872 0.0435,2.8075 6.5,2.8075 h 6.5"
           style="fill:#bd0b1a" />
        <path
           sodipodi:nodetypes="cccscssccc"
           inkscape:connector-curvature="0"
           id="path4528"
           d="m 147.97544,285.25 c 9.4783,-50.80154 32.45192,-122.82451 61.0042,-191.25 9.27411,-23.18574 20.72631,-56.94774 32.25252,-73.134779 l 3.51493,5.817388 c 8.42338,13.941146 25.36053,43.991948 25.83515,45.838128 0.37044,1.440949 -3.58809,8.183572 -13.79663,23.5 -19.83744,29.763183 -25.52492,38.811033 -49.33206,78.479263 -29.59778,49.31678 -50.11943,89.67043 -58.9809,115.97971 -1.293,3.83884 -2.76732,6.30741 -3.23554,6.46349 0.0482,-6.60595 1.10906,-3.01614 2.73833,-11.6932 z"
           style="fill:#fdd7e2" />
        <path
           sodipodi:nodetypes="ccscccccsscssscsscsccssssssccccc"
           inkscape:connector-curvature="0"
           id="path4526"
           d="m 125.84093,326.53597 c 1.21114,3.1649 2.04576,5.91068 1.85471,6.10172 -0.19105,0.19105 -1.89746,-2.46177 -3.79203,-5.89516 L 120.45893,320.5 c -3.88084,-7.3386 -4.14688,-7.77106 -5.83029,-10.89857 -2.40425,-4.45578 -5.60052,-11.25143 -7.10281,-15.10143 -1.5023,-3.85 -3.98705,-9.25 -5.52167,-12 C 99.025487,277.16227 93.886549,265.13727 84.345603,238.39594 76.873994,215.85886 71.838798,198.925 68.035834,186 53.82104,137.68869 47.704983,122.96527 27.061181,87.360182 L 24.823051,83.5 27.026926,86 c 10.677179,12.111824 30.172994,42.43869 39.535654,61.5 8.675342,17.662 13.759334,32.23325 20.385687,57.43387 l 6.310658,24 L 95.963171,239 c 0.647788,2.475 2.449474,8.775 4.003747,14 2.758032,9.27169 2.854032,9.4279 3.994292,6.5 3.14741,-8.08172 13.76986,-31.98205 17.65792,-39.73002 2.40948,-4.80151 4.4125,-10.20151 4.45116,-12 C 153.68203,159.60567 156.50378,154.85817 163,142.85365 163,141.88845 180.36157,113.11594 190.97017,96.5 210.75327,65.514326 244.89011,13.978569 241.00532,21.691737 236.23111,31.170841 219.05265,69.860048 208.97964,94 c -28.55228,68.42549 -51.5259,140.44846 -61.0042,191.25 -1.20574,6.4625 -2.44398,11.75 -2.75165,11.75 -0.30767,0 -4.30461,-2.025 -8.88209,-4.5 -4.57749,-2.475 -8.55197,-4.5 -8.8322,-4.5 L 125.5,286.71665 117,281.98252 c -4.675,-2.60378 -8.62815,-4.40558 -8.78477,-4.00401 -0.30564,0.78362 4.00438,12.9174 10.75267,30.27149"
           style="fill:#f693a2" />
        <path
           sodipodi:nodetypes="cssssssscscssssssssssccssscsscsccsssscsssccc"
           inkscape:connector-curvature="0"
           id="path4522"
           d="m 107.10957,308.85534 c -0.29996,-9.97807 -6.85714,-22.84059 -17.513971,-34.35534 -6.726255,-7.26774 -9.434138,-12.66185 -10.243454,-20.40496 -0.5215,-4.98944 -0.332475,-6.43813 1.436288,-11.52825 1.187632,-3.41775 1.853653,-4.22661 3.211567,-7.03514 1.21291,-2.50863 13.566285,-18.87701 26.16344,-31.03165 7.41031,-7.15 21.76753,-19.80245 31.90493,-28.11655 10.1374,-8.3141 19.27844,-16.06507 20.31343,-17.22438 1.76997,-1.98257 1.78333,-2.25811 0.2247,-4.63687 -3.29574,-5.02994 -15.10432,-10.20379 -36.1065,-16.97373 -20.93986,-6.74985 -26.44668,-9.28338 -34.574958,-11.72368 -0.316226,-0.48201 -5.940471,-3.11693 -12.49832,-5.85539 C 61.307188,112.40296 54,106.52235 54,99.506713 c 0,-3.244463 5.619097,-9.090549 10.39995,-11.625609 1.621911,-0.860022 4.751298,-2.467118 8.843537,-3.970211 3.283788,-1.206146 7.640964,-2.670642 9.75,-3.409793 2.203582,-0.772287 1.339881,-0.559191 4.006513,-1.452354 1.856529,-0.621827 12.486202,-3.332749 24.66279,-2.715609 8.61847,0.436806 13.19458,0.278382 14.66327,-0.507638 5.25878,-2.814415 15.29018,-1.676742 22.67394,2.571481 6.29759,3.623296 6.65485,6.394569 1.25,9.696231 -2.0625,1.259919 -3.975,2.338888 -4.25,2.397709 -9.24867,1.978221 -15.76666,1.079705 -21.33991,-2.941746 C 120.4771,84.530891 107.4632,85.442585 96.5,88.404261 90.033361,90.151204 90.087734,90.113558 87.139472,90.987234 85.472831,91.48112 71.3669,97.823773 67.75,100.40986 c -5.044962,3.60716 -2.99543,7.11488 5.835566,9.98741 2.797062,0.90983 5.947062,1.82541 7,2.03463 1.052939,0.20922 3.939434,1.09109 6.414434,1.9597 2.475,0.86861 5.578831,1.38584 7.638133,1.92718 5.415927,1.29335 26.057877,6.09949 35.861867,10.97895 2.75,1.36868 10.2875,5.06606 16.75,8.21641 6.29136,3.18967 9.75042,5.00946 13.43845,7.29187 3.33318,2.00454 12.31155,10.74881 12.31155,16.32528 0,3.35611 -0.83708,4.71911 -6.75,10.99091 -3.7125,3.93782 -14.85,13.92658 -24.75,22.19724 -25.78672,21.54274 -41.18611,35.55511 -47.5,43.22169 -3.025,3.67308 -6.4,7.64144 -7.5,8.8186 -1.347038,3.01155 -2,3.58502 -2,9.14027 0,8.81471 4.075747,14.13545 8.023038,18.09097 2.2173,2.22192 8.996512,9.91778 11.855872,15.94105 3.38694,7.13463 4.82264,15.00167 3.73533,20.46798 l -0.89511,4.5 z"
           style="fill:#201c1b" />
      </g>
    </g>
  </g>
</svg>
