<?xml version="1.0" encoding="UTF-8" standalone="no"?>
<!-- Uploaded to: SVG Repo, www.svgrepo.com, Generator: SVG Repo Mixer Tools -->

<svg
   xmlns:dc="http://purl.org/dc/elements/1.1/"
   xmlns:cc="http://creativecommons.org/ns#"
   xmlns:rdf="http://www.w3.org/1999/02/22-rdf-syntax-ns#"
   xmlns:svg="http://www.w3.org/2000/svg"
   xmlns="http://www.w3.org/2000/svg"
   xmlns:sodipodi="http://sodipodi.sourceforge.net/DTD/sodipodi-0.dtd"
   xmlns:inkscape="http://www.inkscape.org/namespaces/inkscape"
   fill="#000000"
   width="800px"
   height="800px"
   viewBox="0 0 32 32"
   version="1.1"
   id="svg6"
   sodipodi:docname="git.svg"
   inkscape:version="0.92.4 (5da689c313, 2019-01-14)">
  <metadata
     id="metadata12">
    <rdf:RDF>
      <cc:Work
         rdf:about="">
        <dc:format>image/svg+xml</dc:format>
        <dc:type
           rdf:resource="http://purl.org/dc/dcmitype/StillImage" />
      </cc:Work>
    </rdf:RDF>
  </metadata>
  <defs
     id="defs10" />
  <sodipodi:namedview
     pagecolor="#ffffff"
     bordercolor="#666666"
     borderopacity="1"
     objecttolerance="10"
     gridtolerance="10"
     guidetolerance="10"
     inkscape:pageopacity="0"
     inkscape:pageshadow="2"
     inkscape:window-width="1920"
     inkscape:window-height="1017"
     id="namedview8"
     showgrid="false"
     inkscape:zoom="1.18"
     inkscape:cx="210.29516"
     inkscape:cy="458.40131"
     inkscape:window-x="-8"
     inkscape:window-y="-8"
     inkscape:window-maximized="1"
     inkscape:current-layer="svg6" />
  <title
     id="title2">git</title>
  <path
     style="fill:#ffffff;stroke:none;stroke-width:0.04px;stroke-linecap:butt;stroke-linejoin:miter;stroke-opacity:1;fill-opacity:1"
     d="m 10.228814,5.9491524 1.79661,-1.7881356 6.652542,3.9067796 8,8.0677966 -10,10.508475 -5.016949,-4.305085 1.525424,-13.3220338 z"
     id="path837"
     inkscape:connector-curvature="0" />
  <path
     d="M30.428 14.663l-13.095-13.094c-0.35-0.349-0.833-0.565-1.367-0.565s-1.017 0.216-1.367 0.565l0-0-2.713 2.718 3.449 3.449c0.22-0.077 0.473-0.121 0.737-0.121 1.269 0 2.297 1.028 2.297 2.297 0 0.269-0.046 0.526-0.131 0.766l0.005-0.016 3.322 3.324c0.222-0.079 0.479-0.125 0.746-0.125 1.268 0 2.296 1.028 2.296 2.296s-1.028 2.296-2.296 2.296c-1.268 0-2.296-1.028-2.296-2.296 0-0.313 0.063-0.611 0.176-0.883l-0.006 0.015-3.11-3.094v8.154c0.764 0.385 1.279 1.163 1.279 2.061 0 1.27-1.030 2.3-2.3 2.3s-2.3-1.030-2.3-2.3c0-0.634 0.256-1.207 0.671-1.623l-0 0c0.211-0.211 0.462-0.382 0.741-0.502l0.015-0.006v-8.234c-0.842-0.354-1.422-1.173-1.422-2.126 0-0.32 0.065-0.624 0.183-0.901l-0.006 0.015-3.389-3.405-8.98 8.974c-0.348 0.351-0.562 0.834-0.562 1.368s0.215 1.017 0.563 1.368l13.096 13.092c0.349 0.35 0.832 0.566 1.366 0.566s1.016-0.216 1.366-0.566l13.034-13.034c0.35-0.349 0.567-0.833 0.567-1.366s-0.217-1.017-0.567-1.366l-0-0z"
     id="path4" />
</svg>
