<?xml version="1.0" encoding="UTF-8" standalone="no"?>
<!-- Uploaded to: SVG Repo, www.svgrepo.com, Generator: SVG Repo Mixer Tools -->

<svg
   xmlns:dc="http://purl.org/dc/elements/1.1/"
   xmlns:cc="http://creativecommons.org/ns#"
   xmlns:rdf="http://www.w3.org/1999/02/22-rdf-syntax-ns#"
   xmlns:svg="http://www.w3.org/2000/svg"
   xmlns="http://www.w3.org/2000/svg"
   xmlns:sodipodi="http://sodipodi.sourceforge.net/DTD/sodipodi-0.dtd"
   xmlns:inkscape="http://www.inkscape.org/namespaces/inkscape"
   width="800px"
   height="800px"
   viewBox="0 0 16 16"
   fill="none"
   version="1.1"
   id="svg4"
   sodipodi:docname="linkedin-svgrepo-com.svg"
   inkscape:version="0.92.4 (5da689c313, 2019-01-14)">
  <metadata
     id="metadata10">
    <rdf:RDF>
      <cc:Work
         rdf:about="">
        <dc:format>image/svg+xml</dc:format>
        <dc:type
           rdf:resource="http://purl.org/dc/dcmitype/StillImage" />
        <dc:title></dc:title>
      </cc:Work>
    </rdf:RDF>
  </metadata>
  <defs
     id="defs8" />
  <sodipodi:namedview
     pagecolor="#ffffff"
     bordercolor="#666666"
     borderopacity="1"
     objecttolerance="10"
     gridtolerance="10"
     guidetolerance="10"
     inkscape:pageopacity="0"
     inkscape:pageshadow="2"
     inkscape:window-width="1920"
     inkscape:window-height="1017"
     id="namedview6"
     showgrid="false"
     inkscape:zoom="0.295"
     inkscape:cx="-22.033898"
     inkscape:cy="400"
     inkscape:window-x="-8"
     inkscape:window-y="-8"
     inkscape:window-maximized="1"
     inkscape:current-layer="svg4" />
  <rect
     style="fill:#ffffff;fill-opacity:1;stroke:none;stroke-width:0.02;stroke-opacity:1"
     id="rect817"
     width="14.305084"
     height="12.542373"
     x="0.88135588"
     y="1.6949153" />
  <path
     d="M 13.513978,13.513976 H 11.193539 V 9.879318 c 0,-0.8665756 -0.01566,-1.982422 -1.2072021,-1.982422 -1.2085074,0 -1.3938292,0.9448805 -1.3938292,1.9184728 V 13.513976 H 6.2720691 V 6.039762 h 2.2277776 v 1.0218804 h 0.031322 C 8.9853379,6.2864228 9.8310319,5.821813 10.72893,5.8544402 c 2.35176,0 2.786353,1.546524 2.786353,3.560268 l -0.0014,4.0979618 z M 3.6540714,5.0178816 A 1.3533716,1.3533716 0 0 1 2.3072251,3.6723404 c 0,-0.7386773 0.6081689,-1.3468462 1.3468463,-1.3468462 0.7386773,0 1.3455411,0.6081689 1.3468462,1.3468462 0,0.7386774 -0.6081689,1.3468462 -1.3468462,1.3468462 z M 4.8142907,13.513976 H 2.4912419 V 6.039762 H 4.8142907 Z M 14.668977,0.16949606 H 1.3244972 A 1.1484736,1.1484736 0 0 0 0.16949819,1.2996984 V 14.700297 A 1.1484736,1.1484736 0 0 0 1.3244972,15.830499 H 14.670282 a 1.1510838,1.1510838 0 0 0 1.160219,-1.130202 V 1.2983934 A 1.1484736,1.1484736 0 0 0 14.670282,0.17080114 Z"
     id="path2"
     inkscape:connector-curvature="0"
     style="fill:#0a66c2;stroke-width:0.99999994" />
</svg>
