<?xml version="1.0" encoding="UTF-8" standalone="no"?>
<!-- Uploaded to: SVG Repo, www.svgrepo.com, Generator: SVG Repo Mixer Tools -->

<svg
   xmlns:dc="http://purl.org/dc/elements/1.1/"
   xmlns:cc="http://creativecommons.org/ns#"
   xmlns:rdf="http://www.w3.org/1999/02/22-rdf-syntax-ns#"
   xmlns:svg="http://www.w3.org/2000/svg"
   xmlns="http://www.w3.org/2000/svg"
   xmlns:sodipodi="http://sodipodi.sourceforge.net/DTD/sodipodi-0.dtd"
   xmlns:inkscape="http://www.inkscape.org/namespaces/inkscape"
   width="800"
   height="554.49359"
   viewBox="-18.458 -22.75 191.151 132.49001"
   version="1.1"
   id="svg12"
   sodipodi:docname="mysql-logo-svgrepo-com.svg"
   inkscape:version="0.92.4 (5da689c313, 2019-01-14)">
  <metadata
     id="metadata18">
    <rdf:RDF>
      <cc:Work
         rdf:about="">
        <dc:format>image/svg+xml</dc:format>
        <dc:type
           rdf:resource="http://purl.org/dc/dcmitype/StillImage" />
        <dc:title></dc:title>
      </cc:Work>
    </rdf:RDF>
  </metadata>
  <defs
     id="defs16" />
  <sodipodi:namedview
     pagecolor="#ffffff"
     bordercolor="#666666"
     borderopacity="1"
     objecttolerance="10"
     gridtolerance="10"
     guidetolerance="10"
     inkscape:pageopacity="0"
     inkscape:pageshadow="2"
     inkscape:window-width="1920"
     inkscape:window-height="1017"
     id="namedview14"
     showgrid="false"
     fit-margin-top="0"
     fit-margin-left="0"
     fit-margin-right="0"
     fit-margin-bottom="0"
     inkscape:zoom="0.295"
     inkscape:cx="-22.033898"
     inkscape:cy="277.24469"
     inkscape:window-x="-8"
     inkscape:window-y="-8"
     inkscape:window-maximized="1"
     inkscape:current-layer="svg12" />
  <path
     d="M -18.458,-22.75 H 172.693 V 109.74 H -18.458 Z"
     id="path2"
     inkscape:connector-curvature="0"
     style="fill:none" />
  <path
     d="M 32.26868,92.709307 H 25.312261 C 25.066266,80.967409 24.388771,69.928548 23.281121,59.584655 h -0.06184 L 12.628055,92.709307 H 7.331767 L -3.196285,59.584655 h -0.06049 c -0.781001,9.931212 -1.272991,20.972763 -1.477315,33.124652 h -6.34076 c 0.408648,-14.777181 1.4356439,-28.630872 3.076955,-41.562418 H 0.624032 L 10.65875,81.686575 h 0.06183 L 20.817138,51.146889 h 8.249573 c 1.806652,15.146846 2.873975,29.001881 3.201969,41.562418 M 62.437357,62.044606 c -2.832304,15.369989 -6.569279,26.537898 -11.206891,33.509103 -3.613305,5.366191 -7.572079,8.051981 -11.883042,8.051981 -1.149321,0 -2.56749,-0.34681 -4.247784,-1.03506 v -3.706069 c 0.821328,0.118293 1.785145,0.185504 2.892795,0.185504 2.013664,0 3.632124,-0.553825 4.866132,-1.664163 1.475971,-1.352301 2.213956,-2.872631 2.213956,-4.55427 0,-1.153354 -0.575333,-3.511143 -1.72331,-7.081433 L 35.7153,62.043262 h 6.834093 l 5.479104,17.730466 c 1.23132,4.025986 1.744817,6.836782 1.539149,8.437767 2.996301,-8.002234 5.089276,-16.727667 6.281613,-26.169577 h 6.588098 z"
     id="path4"
     inkscape:connector-curvature="0"
     style="fill:#5d87a1;stroke-width:1" />
  <path
     d="M 155.03502,92.709307 H 135.27476 V 51.146889 h 6.64724 v 36.446257 h 13.11302 z m -24.93288,1.004143 -7.64064,-3.77058 c 0.6775,-0.556514 1.32542,-1.158731 1.90882,-1.856389 3.24767,-3.814941 4.86748,-9.456697 4.86748,-16.929302 0,-13.750185 -5.39577,-20.628638 -16.19132,-20.628638 -5.2936,0 -9.42309,1.744818 -12.37638,5.235797 -3.24498,3.817629 -4.86479,9.439222 -4.86479,16.8715 0,7.30592 1.43565,12.665387 4.30828,16.064958 2.62798,3.079644 6.58944,4.621482 11.88707,4.621482 1.97603,0 3.7894,-0.241962 5.44147,-0.72992 l 9.94734,5.790967 z m -24.75141,-9.320928 c -1.68298,-2.707291 -2.52447,-7.054548 -2.52447,-13.048494 0,-10.464874 3.17911,-15.70336 9.54407,-15.70336 3.32698,0 5.76543,1.252828 7.32474,3.753106 1.68029,2.711323 2.52582,7.019598 2.52582,12.930201 0,10.550905 -3.18181,15.827029 -9.54273,15.827029 -3.32833,0.0013 -5.76677,-1.247451 -7.32743,-3.758482 M 92.90849,81.189208 c 0,3.524586 -1.29316,6.416036 -3.87678,8.681073 -2.58631,2.255627 -6.05443,3.386129 -10.400348,3.386129 -4.064968,0 -8.006266,-1.298531 -11.821207,-3.882152 l 1.786489,-3.568945 c 3.282623,1.644 6.254728,2.461295 8.923035,2.461295 2.504311,0 4.461521,-0.555169 5.881031,-1.656098 1.41817,-1.104961 2.26369,-2.654865 2.26369,-4.61476 0,-2.469361 -1.72196,-4.579811 -4.880917,-6.34748 -2.912958,-1.599641 -8.738875,-4.944099 -8.738875,-4.944099 -3.157609,-2.301331 -4.73843,-4.772036 -4.73843,-8.842381 0,-3.368654 1.178895,-6.088042 3.538028,-8.156821 2.361822,-2.076844 5.409204,-3.111905 9.144834,-3.111905 3.85796,0 7.36507,1.033717 10.52402,3.079644 l -1.60233,3.570289 c -2.70191,-1.147977 -5.36888,-1.721966 -7.999544,-1.721966 -2.130614,0 -3.775958,0.512154 -4.919902,1.540494 -1.153354,1.024308 -1.864455,2.334937 -1.864455,3.942643 0,2.457263 1.75826,4.594597 5.003245,6.397217 2.951936,1.602329 8.923036,5.004589 8.923036,5.004589 3.23826,2.297298 4.85538,4.745151 4.85538,8.783234"
     id="path6"
     inkscape:connector-curvature="0"
     style="fill:#f8981d;stroke-width:1" />
  <path
     d="m 163.38003,37.225986 c -4.01926,-0.102162 -7.13117,0.302453 -9.74302,1.407415 -0.75411,0.301109 -1.95317,0.301109 -2.05802,1.254172 0.4073,0.40327 0.45435,1.05388 0.80789,1.610394 0.60221,1.004144 1.65206,2.3551 2.6105,3.05948 1.05254,0.806541 2.10911,1.605017 3.21676,2.308052 1.95317,1.208468 4.16713,1.911503 6.07056,3.115938 1.109,0.700347 2.21127,1.606361 3.32161,2.360478 0.54576,0.401926 0.89526,1.05388 1.60367,1.305252 v -0.153243 c -0.35488,-0.451663 -0.45569,-1.104961 -0.80385,-1.607705 l -1.50823,-1.454463 c -1.45715,-1.957207 -3.26784,-3.66573 -5.22101,-5.069112 -1.60771,-1.10765 -5.12423,-2.613194 -5.77618,-4.465551 l -0.10216,-0.102161 c 1.10496,-0.103507 2.41559,-0.504089 3.46543,-0.811919 1.70853,-0.450319 3.2665,-0.348157 5.01938,-0.798476 0.80654,-0.201635 1.60636,-0.454351 2.41559,-0.703035 v -0.453007 c -0.9087,-0.904671 -1.55662,-2.106417 -2.51238,-2.961351 -2.55673,-2.208579 -5.37425,-4.368765 -8.28586,-6.176762 -1.55932,-1.006832 -3.56492,-1.654754 -5.22505,-2.511032 -0.59818,-0.302453 -1.60636,-0.451663 -1.95855,-0.954407 -0.90064,-1.104962 -1.40741,-2.559425 -2.06071,-3.867366 -1.45177,-2.759715 -2.86188,-5.821884 -4.11471,-8.74022 -0.90601,-1.957209 -1.45715,-3.9117277 -2.56211,-5.7224129 -5.1753,-8.5358956 -10.79555,-13.7058256 -19.43361,-18.7803111 -1.85639,-1.056569 -4.06497,-1.506888 -6.4241,-2.060713 l -3.76789,-0.198946 c -0.80386,-0.35219 -1.60905,-1.307942 -2.31075,-1.759605 -2.86591,-1.806652 -10.24441,-5.72241 -12.35218,-0.552481 -1.35767,3.267837 2.00829,6.4805595 3.16434,8.138 0.85358,1.1506645 1.95989,2.4599495 2.55673,3.7665465 0.35354,0.85359 0.45301,1.759604 0.80654,2.661586 0.80386,2.20992404 1.55528,4.6685302 2.61185,6.7305875 0.55114,1.0511922 1.15201,2.1561537 1.85639,3.1078725 0.40327,0.5565135 1.10496,0.8025086 1.25821,1.7098675 -0.70035,1.000112 -0.75546,2.50969 -1.15739,3.765207 -1.80665,5.674018 -1.10093,12.703026 1.45984,16.872844 0.80116,1.255516 2.71267,4.019264 5.2694,2.960007 2.26369,-0.903327 1.76229,-3.765204 2.4129,-6.274892 0.14921,-0.60625 0.0511,-1.004143 0.35219,-1.402037 v 0.09813 c 0.70035,1.404726 1.40742,2.758371 2.05668,4.16713 1.55797,2.458607 4.27064,5.02072 6.5303,6.723866 1.20309,0.908703 2.15615,2.462639 3.66304,3.017809 v -0.150556 h -0.0995 c -0.30514,-0.450319 -0.75143,-0.651954 -1.15201,-1.001455 -0.90602,-0.904671 -1.90882,-2.009632 -2.61185,-3.012432 -2.10507,-2.813485 -3.96818,-5.928078 -5.62159,-9.142146 -0.80923,-1.559313 -1.50689,-3.263803 -2.15885,-4.820428 -0.30379,-0.600873 -0.30379,-1.506888 -0.80788,-1.809341 -0.75546,1.103617 -1.85639,2.059369 -2.40753,3.41167 -0.95575,2.162875 -1.05522,4.823117 -1.4101,7.589553 l -0.1976,0.09679 c -1.59964,-0.401926 -2.15616,-2.05668 -2.76375,-3.461406 -1.5042,-3.567601 -1.75692,-9.294044 -0.45166,-13.410093 0.3495,-1.052537 1.86176,-4.3674251 1.2582,-5.3702248 -0.30245,-0.9611284 -1.30794,-1.5082322 -1.85908,-2.2650368 -0.64792,-0.9517187 -1.35767,-2.1561537 -1.80934,-3.2127228 -1.20443,-2.81079607 -1.81068,-5.9253901 -3.10787,-8.7348421 -0.60625,-1.309286 -1.65879,-2.6642735 -2.51103,-3.8700515 -0.9571,-1.354989 -2.00963,-2.309396 -2.76644,-3.915757 -0.25003,-0.552481 -0.60087,-1.455807 -0.19895,-2.056681 0.0981,-0.40327 0.30246,-0.553825 0.70304,-0.654642 0.65061,-0.549793 2.50969,0.14921 3.16164,0.451663 1.86177,0.752772 3.41839,1.455807 4.97233,2.509688 0.70303,0.504088 1.45715,1.458495 2.35913,1.709867 h 1.05657 c 1.60367,0.349501 3.41167,0.09679 4.92125,0.551137 2.66024,0.8549325 5.07045,2.1091035 7.23198,3.462747 6.57735,4.1711625 12.00134,10.0978969 15.66304,17.176641 0.60087,1.153355 0.85627,2.209925 1.40472,3.413017 1.05792,2.46264 2.36586,4.973672 3.4157,7.383886 1.05523,2.359133 2.06072,4.768003 3.56761,6.727899 0.75142,1.05388 3.77058,1.606361 5.12422,2.158842 1.00146,0.450319 2.56077,0.850901 3.4641,1.403382 1.70852,1.052536 3.41032,2.261004 5.01668,3.418391 0.79982,0.602217 3.31354,1.857733 3.46275,2.863221 M 112.15657,-6.4132735 a 7.8234506,7.8234506 0 0 0 -2.05534,0.252716 v 0.100818 h 0.0968 c 0.40462,0.802509 1.10765,1.359022 1.60905,2.059369 0.40462,0.805197 0.75546,1.603673 1.15201,2.407526 l 0.0968,-0.09947 c 0.70841,-0.5014 1.0606,-1.305253 1.0606,-2.511032 -0.30514,-0.354878 -0.35219,-0.701691 -0.60625,-1.05388 -0.29573,-0.502745 -0.94769,-0.752772 -1.35364,-1.156043"
     id="path8"
     inkscape:connector-curvature="0"
     style="fill:#5d87a1;stroke-width:1" />
  <path
     d="m 141.148,84.248 h 0.774 V 80.46 h -1.161 l -0.947,2.585 -1.029,-2.585 h -1.118 v 3.788 h 0.731 v -2.882 h 0.041 l 1.078,2.882 h 0.557 l 1.074,-2.882 z m -6.235,0 h 0.819 v -3.146 h 1.072 v -0.643 h -3.008 v 0.643 h 1.115 z"
     id="path10"
     inkscape:connector-curvature="0"
     style="fill:#f8981d" />
</svg>
