<?xml version="1.0" encoding="UTF-8" standalone="no"?>
<!-- Created with Inkscape (http://www.inkscape.org/) -->

<svg
   xmlns:dc="http://purl.org/dc/elements/1.1/"
   xmlns:cc="http://creativecommons.org/ns#"
   xmlns:rdf="http://www.w3.org/1999/02/22-rdf-syntax-ns#"
   xmlns:svg="http://www.w3.org/2000/svg"
   xmlns="http://www.w3.org/2000/svg"
   xmlns:sodipodi="http://sodipodi.sourceforge.net/DTD/sodipodi-0.dtd"
   xmlns:inkscape="http://www.inkscape.org/namespaces/inkscape"
   version="1.1"
   id="svg2"
   width="345.60001"
   height="345.60001"
   viewBox="0 0 345.60001 345.60001"
   sodipodi:docname="logo-OC.svg"
   inkscape:version="0.92.4 (5da689c313, 2019-01-14)">
  <metadata
     id="metadata8">
    <rdf:RDF>
      <cc:Work
         rdf:about="">
        <dc:format>image/svg+xml</dc:format>
        <dc:type
           rdf:resource="http://purl.org/dc/dcmitype/StillImage" />
        <dc:title></dc:title>
      </cc:Work>
    </rdf:RDF>
  </metadata>
  <defs
     id="defs6" />
  <sodipodi:namedview
     pagecolor="#ffffff"
     bordercolor="#666666"
     borderopacity="1"
     objecttolerance="10"
     gridtolerance="10"
     guidetolerance="10"
     inkscape:pageopacity="0"
     inkscape:pageshadow="2"
     inkscape:window-width="1920"
     inkscape:window-height="1017"
     id="namedview4"
     showgrid="false"
     fit-margin-top="0"
     fit-margin-left="0"
     fit-margin-right="0"
     fit-margin-bottom="0"
     inkscape:zoom="0.68287036"
     inkscape:cx="-9.5186442"
     inkscape:cy="172.8"
     inkscape:window-x="-8"
     inkscape:window-y="-8"
     inkscape:window-maximized="1"
     inkscape:current-layer="g817" />
  <g
     id="g817"
     transform="translate(-666.3051,-93.722036)">
    <path
       style="fill:#724fe9;stroke-width:1"
       d="M 666.3051,266.52204 V 93.722036 h 172.8 172.8 V 266.52204 439.32205 h -172.8 -172.8 z m 35.93304,127.71565 c 2.24998,-0.97464 4.7743,-3.51252 5.85305,-5.88448 2.33349,-5.13096 0.11005,-11.68589 -4.87462,-14.37089 -1.94371,-1.04698 -4.84766,-1.65536 -6.60592,-1.38393 -2.1197,0.32722 -4.2619,1.09662 -4.84394,1.73978 -0.50513,0.55816 -0.43674,0.70392 1.27939,2.72681 1.36127,1.60459 1.94337,2.0776 2.33603,1.89827 0.28763,-0.13137 1.24297,-0.28839 2.12297,-0.34892 4.40734,-0.30318 7.19039,4.86265 4.51173,8.37456 -1.48882,1.95195 -3.43438,2.55796 -6.27234,1.95376 -1.08712,-0.23145 -1.17079,-0.17672 -2.8,1.83131 -0.92367,1.13844 -1.67939,2.15656 -1.67939,2.26249 0,0.27129 2.52933,1.53991 3.68,1.84575 1.6261,0.43219 5.62279,0.079 7.29304,-0.64451 z m 87.52979,-0.0927 c 0.82344,-0.40862 1.53521,-0.95895 1.5817,-1.22295 0.0465,-0.264 -0.6806,-1.33238 -1.61575,-2.37417 l -1.70026,-1.89417 -1.42785,0.35954 c -2.56135,0.64495 -5.54825,-0.78177 -6.41625,-3.06479 -0.87768,-2.30848 -0.0204,-5.05582 2.05861,-6.59699 0.94501,-0.70054 3.81209,-0.93569 5.19863,-0.42638 0.55085,0.20235 0.93937,-0.0992 2.32,-1.8009 0.91209,-1.12417 1.65834,-2.21351 1.65834,-2.42075 0,-0.20724 -0.82518,-0.75458 -1.83374,-1.21631 -1.4408,-0.65963 -2.34937,-0.8435 -4.24,-0.85809 -4.1065,-0.0317 -7.37878,1.67345 -9.60274,5.00386 -4.26273,6.38348 -1.05115,15.00572 6.37388,17.11217 2.13145,0.60468 5.79747,0.31695 7.64543,-0.60007 z m 59.01852,-0.18603 c 0.94587,-0.53155 2.09772,-1.53456 2.63866,-2.2977 0.8378,-1.18196 0.96,-1.62895 0.96,-3.5117 0,-1.87122 -0.11917,-2.31358 -0.89854,-3.33538 -1.09931,-1.44127 -2.60598,-2.23729 -5.87804,-3.10554 -3.41029,-0.90493 -4.23398,-1.25367 -4.60691,-1.95049 -0.41088,-0.76774 0.0915,-1.74822 1.06315,-2.07508 1.04635,-0.35197 4.08501,-0.23721 5.20034,0.19641 0.92221,0.35854 1.01983,0.30837 2.48,-1.27443 0.836,-0.90621 1.52,-1.83797 1.52,-2.07059 0,-0.58946 -2.18989,-1.40362 -4.90798,-1.8247 -4.4585,-0.69069 -8.7902,0.72339 -10.45186,3.412 -0.96652,1.56388 -1.1749,3.98568 -0.49591,5.76359 0.85646,2.24261 2.62481,3.30186 7.45671,4.46662 2.35752,0.56829 3.91904,1.46482 3.91904,2.25007 0,0.23845 -0.37943,0.732 -0.84316,1.09677 -1.09612,0.86221 -3.52396,0.87981 -6.20624,0.045 l -1.98643,-0.61825 -0.95087,1.01825 c -1.41169,1.51169 -1.9359,2.38572 -1.67959,2.80043 0.3089,0.49982 2.72761,1.547 4.39259,1.90179 0.74453,0.15865 2.7583,0.23621 4.47504,0.17236 2.74278,-0.10201 3.32493,-0.23049 4.8,-1.05942 z m 18.48272,0.34291 c 1.82561,-0.81024 3.73365,-2.90918 4.01684,-4.41872 0.11939,-0.63639 0.15077,-1.84708 0.0697,-2.69042 -0.27493,-2.86123 -1.9926,-4.23887 -6.8794,-5.51752 -4.41888,-1.15622 -5.52731,-2.18874 -3.91555,-3.64736 0.51213,-0.46348 1.12512,-0.58531 2.8,-0.55649 1.17937,0.0203 2.57585,0.20294 3.10329,0.40589 0.92338,0.3553 1.01505,0.30581 2.46913,-1.3331 0.83057,-0.93616 1.46864,-1.84611 1.41793,-2.02211 -0.16434,-0.5703 -2.33701,-1.41026 -4.5782,-1.76995 -3.75981,-0.60341 -7.72935,0.22938 -9.65499,2.02558 -1.90666,1.7785 -2.65802,5.33754 -1.56896,7.43186 1.06795,2.05374 2.2904,2.75075 7.28904,4.15608 3.40849,0.95827 3.82708,1.20518 3.82708,2.25747 0,1.7625 -3.38146,2.30263 -6.88,1.09896 -1.02311,-0.352 -1.90174,-0.64 -1.95252,-0.64 -0.0508,0 -0.75154,0.80926 -1.55725,1.79835 -1.73642,2.13165 -1.65337,2.35648 1.21398,3.28627 2.77561,0.90005 3.21629,0.95873 6.45985,0.86015 2.0325,-0.0618 3.30806,-0.27582 4.32,-0.72494 z m 43.95185,-0.37425 c 2.40367,-1.18333 4.10388,-2.93708 5.28083,-5.44718 0.71533,-1.52557 0.84326,-2.23532 0.84326,-4.6784 0,-2.50193 -0.11684,-3.11792 -0.89002,-4.69237 -1.18713,-2.4174 -3.14161,-4.31633 -5.66229,-5.50138 -1.77267,-0.83338 -2.44358,-0.974 -4.64,-0.97248 -3.13702,0.002 -5.41606,0.92269 -7.79603,3.14886 -5.57796,5.21754 -4.15973,14.6437 2.74009,18.21173 2.89532,1.49723 6.99978,1.46935 10.12416,-0.0688 z m -7.15591,-4.75647 c -1.18234,-0.44427 -2.36191,-1.57002 -2.91027,-2.77745 -2.28775,-5.0375 2.61352,-9.9415 7.54838,-7.55257 1.89393,0.91683 2.82393,2.32419 2.98225,4.51299 0.1649,2.27975 -0.54021,3.86301 -2.28248,5.12511 -1.05962,0.76758 -1.57535,0.91856 -3.0659,0.89754 -0.98559,-0.0139 -2.00798,-0.10642 -2.27198,-0.20562 z m 31.15935,5.08184 c 2.22006,-0.98204 4.7611,-3.55585 5.82469,-5.89979 1.78168,-3.92647 1.01042,-8.7175 -1.92977,-11.9877 -5.37619,-5.97962 -14.86515,-4.69135 -18.62445,2.52854 -0.79657,1.52985 -0.89027,2.04177 -0.89837,4.908 -0.008,2.72336 0.10251,3.4248 0.73993,4.70923 1.48905,3.00052 4.56195,5.59403 7.54879,6.37114 1.66794,0.43396 5.72103,0.0864 7.33918,-0.62942 z m -6.99935,-5.22439 c -2.07357,-1.14685 -3.13143,-2.93535 -3.13143,-5.29425 0,-5.02834 6.35248,-7.4671 9.72039,-3.73172 2.48721,2.75857 1.84132,6.9504 -1.34704,8.74236 -1.30025,0.73078 -4.15423,0.8852 -5.24192,0.28361 z m 54.16252,5.70232 c 3.63074,-0.9418 5.51748,-3.20373 5.51748,-6.61468 0,-3.62666 -1.63153,-5.11211 -7.14381,-6.50417 -4.19021,-1.05819 -5.3147,-2.1415 -3.72051,-3.58422 0.51213,-0.46348 1.12512,-0.58531 2.8,-0.55649 1.17938,0.0203 2.57632,0.20468 3.10432,0.40975 0.92588,0.35961 1.01389,0.31223 2.47623,-1.3331 0.83392,-0.93829 1.47155,-1.84997 1.41692,-2.02597 -0.18649,-0.60083 -2.44645,-1.44289 -4.8199,-1.7959 -4.88006,-0.72582 -9.11711,0.80988 -10.69374,3.8759 -0.59719,1.16134 -0.71815,1.82636 -0.62505,3.43655 0.19481,3.36951 1.59355,4.6228 6.70757,6.01009 3.93004,1.06612 4.73797,1.49968 4.73797,2.54259 0,1.78764 -3.03032,2.30381 -6.74244,1.14847 l -1.99946,-0.6223 -1.38563,1.5023 c -0.76211,0.82626 -1.38718,1.73657 -1.38906,2.02289 -0.004,0.58716 2.474,1.76819 4.58661,2.18616 2.10316,0.4161 5.36258,0.37162 7.1725,-0.0979 z m -265.28068,-2.12887 c 0.14255,-3.62274 -0.0528,-3.42227 3.51487,-3.6072 3.87191,-0.20069 5.03344,-0.55213 6.78766,-2.05367 1.85942,-1.59159 2.55981,-3.22714 2.56859,-5.9981 0.008,-2.66758 -0.76792,-4.51813 -2.49157,-5.93891 -2.05297,-1.69223 -3.43167,-1.94707 -10.00635,-1.84955 l -5.89505,0.0874 -0.0845,10.3974 c -0.0465,5.71857 -0.0128,10.58443 0.0749,10.81302 0.11716,0.30531 0.86155,0.39094 2.80453,0.3226 l 2.64505,-0.093 z m 0.47815,-8.67384 c -0.4146,-0.42928 -0.56924,-4.59279 -0.20577,-5.53999 0.14881,-0.38777 0.6679,-0.50617 2.21917,-0.50617 2.55267,0 3.50675,0.36266 4.13127,1.57036 0.72622,1.40436 0.6089,2.45243 -0.40105,3.58276 -0.80486,0.9008 -1.12342,1.01874 -3.12,1.15521 -1.5704,0.10734 -2.34113,0.0303 -2.62362,-0.26217 z m 31.12,8.51384 v -2.24 l -5.12,-0.16 -5.12,-0.16 -0.0957,-1.82997 c -0.1145,-2.19012 -0.23286,-2.13387 4.73567,-2.25089 l 3.36,-0.0791 v -2.08 -2.08 l -4,-0.16 -4,-0.16 -0.0996,-1.38365 c -0.15563,-2.16295 0.062,-2.26721 4.52133,-2.16551 2.14403,0.0489 4.29422,0.0215 4.77822,-0.061 0.86039,-0.14653 0.88,-0.19903 0.88,-2.35546 v -2.20559 l -7.92,0.0856 -7.92,0.0856 -0.0845,10.3974 c -0.0465,5.71857 -0.014,10.58109 0.0721,10.80561 0.12241,0.31898 1.88954,0.38949 8.08454,0.3226 l 7.92789,-0.0856 z m 8.72774,-3.12 c 0.0483,-2.948 0.21499,-5.36 0.37053,-5.36 0.15553,0 2.02687,2.22454 4.15853,4.94341 2.13166,2.71888 4.10541,5.17308 4.38612,5.45379 0.38699,0.38699 1.02367,0.4877 2.63373,0.41658 l 2.12335,-0.0938 0.0843,-10.8 0.0843,-10.8 h -2.72426 -2.72426 v 5.10111 c 0,5.723 -0.20368,6.27852 -1.64133,4.47657 -0.48168,-0.60372 -2.36142,-2.96968 -4.17722,-5.25768 l -3.30145,-4.16 -2.48,-0.0935 -2.48,-0.0935 v 10.68012 c 0,5.87408 0.10135,10.78148 0.22522,10.90535 0.12387,0.12387 1.38387,0.18387 2.8,0.13334 l 2.57478,-0.0919 z m 51.20806,3.14865 c 0.0673,-1.55273 -0.028,-2.28992 -0.32,-2.47511 -0.22869,-0.14506 -2.17736,-0.26595 -4.33039,-0.26864 l -3.9146,-0.005 -0.0854,-8.24 -0.0854,-8.24 h -2.88 -2.88 l -0.0845,10.3974 c -0.0465,5.71857 -0.014,10.58133 0.0723,10.80614 0.12217,0.31836 1.73299,0.38969 7.28454,0.3226 l 7.12768,-0.0861 z m 7.34005,1.97135 c 0.17282,-0.22 0.57261,-1.09079 0.88842,-1.9351 0.31582,-0.8443 0.80405,-1.63847 1.08497,-1.76482 0.28092,-0.12635 2.30238,-0.15556 4.49212,-0.0649 l 3.98136,0.16482 0.65864,1.60122 c 1.01532,2.46835 0.90287,2.39878 3.87753,2.39878 2.26693,0 2.70111,-0.0826 2.70111,-0.51394 0,-0.40951 -6.68645,-16.73444 -8.34165,-20.36606 -0.39288,-0.86203 -0.45805,-0.88 -3.19053,-0.88 -1.84868,0 -2.89666,0.1349 -3.10735,0.4 -0.65943,0.82974 -8.73654,20.53654 -8.58213,20.93894 0.21959,0.57224 5.09,0.59076 5.53751,0.0211 z m 3.78661,-8.84367 c -0.25774,-0.41703 1.83239,-5.81805 2.20363,-5.6943 0.43529,0.14509 2.47292,5.30361 2.24233,5.67672 -0.23621,0.38219 -4.21091,0.39791 -4.44596,0.0176 z m 59.97755,6.36367 0.16,-2.72 1.18724,-0.0986 c 1.34087,-0.11131 1.32952,-0.12148 3.77105,3.37856 l 1.61838,2.32 h 2.85278 c 1.74173,0 2.9381,-0.13806 3.07186,-0.3545 0.1205,-0.19497 -0.663,-1.62738 -1.74111,-3.18314 -1.07811,-1.55576 -1.9602,-2.92608 -1.9602,-3.04516 0,-0.11908 0.6371,-0.77731 1.41577,-1.46273 1.87789,-1.65298 2.53677,-3.40094 2.37319,-6.29587 -0.17788,-3.14806 -1.33359,-4.95901 -4.06814,-6.3746 l -2.01674,-1.044 h -6.21204 -6.21204 v 10.66666 c 0,5.86667 0.10135,10.76802 0.22522,10.89189 0.12387,0.12387 1.38387,0.18387 2.8,0.13334 l 2.57478,-0.0919 z m 0.38676,-7.92902 c -0.29809,-0.20567 -0.38725,-1.08001 -0.32,-3.13804 l 0.0932,-2.85294 2.0535,-0.0967 c 2.60673,-0.1227 3.81085,0.36533 4.404,1.78493 0.56117,1.34305 0.31765,2.63805 -0.67067,3.56652 -0.56133,0.52734 -1.27191,0.73453 -2.9434,0.85823 -1.21189,0.0897 -2.38939,0.0348 -2.61667,-0.12204 z m 69.27207,10.40902 c 0.14114,-0.22 0.22386,-1.86947 0.18383,-3.66548 -0.11904,-5.34126 0.0666,-5.3666 2.82313,-0.38515 l 2.37421,4.29063 1.3315,0.097 c 0.79897,0.0582 1.4857,-0.0698 1.71706,-0.32 0.21205,-0.22936 1.26888,-2.0626 2.3485,-4.07388 1.07961,-2.01128 2.13856,-3.71382 2.3532,-3.78343 0.29028,-0.0941 0.41326,0.92479 0.48,3.97688 l 0.0897,4.10342 h 2.4 2.4 l 0.0843,-10.81354 0.0843,-10.81354 -2.48257,0.0935 -2.48256,0.0935 -3.25598,6.4 c -1.79079,3.52 -3.42662,6.4 -3.63519,6.4 -0.20857,0 -1.84015,-2.88 -3.62573,-6.4 l -3.24652,-6.4 h -2.4 -2.4 l -0.0845,10.3974 c -0.0465,5.71857 -0.015,10.57857 0.07,10.8 0.21196,0.55237 4.51925,0.55466 4.87341,0.003 z M 829.1851,354.97818 c 16.55988,-1.26723 33.22335,-6.46497 47.77631,-14.9026 19.51493,-11.31452 36.13963,-29.63573 45.4005,-50.03353 6.86297,-15.11624 10.1832,-30.34109 10.1832,-46.69495 0,-15.25738 -2.53426,-28.32805 -8.22146,-42.40289 -8.94492,-22.13718 -25.15787,-41.17401 -45.64823,-53.599 -13.19808,-8.0031 -27.88418,-13.15094 -44.05876,-15.44371 -5.74293,-0.81407 -22.45314,-0.8182 -28.15156,-0.007 -9.9245,1.41287 -17.9421,3.48683 -27.12803,7.01738 -8.68043,3.33627 -24.78585,12.52213 -24.2775,13.84688 0.15793,0.41154 5.91957,7.36429 17.76973,21.44325 2.51834,2.992 7.71494,9.184 11.54799,13.76 3.83306,4.576 7.25439,8.57578 7.60297,8.88839 0.6131,0.54985 0.74225,0.51283 3.95931,-1.13489 4.29957,-2.20216 8.86114,-3.82549 13.78372,-4.9052 3.50819,-0.76948 4.64585,-0.86809 10.34181,-0.89645 6.95238,-0.0346 9.04701,0.21814 14.61571,1.76354 9.35938,2.59737 17.16116,7.17253 23.9443,14.04154 10.2292,10.35871 15.81862,24.72071 15.25708,39.20307 -0.26239,6.76719 -1.46075,12.45921 -3.88662,18.46085 -6.29991,15.5861 -19.70582,27.28409 -36.17456,31.56592 -5.11452,1.32976 -9.48651,1.77375 -15.35591,1.55946 -8.46035,-0.30888 -15.12946,-2.0529 -22.51386,-5.88753 -2.75778,-1.43208 -3.39563,-1.65299 -3.80112,-1.31647 -0.26798,0.22241 -3.31274,3.77413 -6.76613,7.89272 -3.45339,4.11858 -8.77261,10.4576 -11.82048,14.08669 -3.04788,3.6291 -6.79038,8.11037 -8.31669,9.95837 -1.5263,1.848 -4.46859,5.34218 -6.53841,7.76484 -2.06982,2.42266 -3.76331,4.53456 -3.76331,4.69311 0,0.72507 5.74957,4.5421 12.03456,7.9895 14.62543,8.02224 31.84645,12.77049 49.24544,13.57815 2.45418,0.11392 9.84608,-0.0512 12.96,-0.28947 z"
       id="path819"
       inkscape:connector-curvature="0" />
  </g>
</svg>
